<svg width="238" height="76" viewBox="0 0 238 76" fill="none" xmlns="http://www.w3.org/2000/svg">
<path fill-rule="evenodd" clip-rule="evenodd" d="M82.1637 50.0161C59.1962 62.7864 34.6448 69.9894 8.29825 70.781L8.24544 70.8074C7.94542 70.8074 7.64277 70.7916 7.33998 70.7758C6.68362 70.7416 6.0266 70.7073 5.39431 70.8337C4.79715 70.9415 4.06189 70.8539 3.32852 70.7666C1.72757 70.5759 0.13559 70.3864 0.00885147 72.2321C-0.177643 74.9581 2.62075 75.1535 4.82299 75.3072C5.11466 75.3276 5.39588 75.3472 5.65831 75.3719C12.0734 75.9788 18.5148 75.4775 24.9034 74.6596C51.8572 71.2295 76.5934 61.8365 99.1121 46.6916C100.722 45.6098 102.095 45.557 103.838 46.1375C113.817 49.5412 124.086 50.0161 134.434 48.5385C152.439 45.9528 169.466 40.1481 186.072 32.9186C196.051 28.5915 205.713 23.6312 215.005 17.9585C215.148 17.8714 215.302 17.7862 215.46 17.6992C216.352 17.2063 217.343 16.659 216.827 15.4255C216.29 14.1659 215.316 14.5869 214.462 14.956C214.225 15.0585 213.998 15.157 213.791 15.2144C209.62 16.4281 205.502 17.721 201.41 19.093C195.238 21.1753 189.137 23.4532 183.037 25.7307C172.828 29.5423 162.622 33.3528 152.096 36.2432C139.318 39.7524 126.435 42.4172 113.077 40.4648C112.841 40.431 112.583 40.4116 112.319 40.3918C111.344 40.3187 110.289 40.2396 109.936 39.4093C109.517 38.4386 110.293 37.9485 111.046 37.4734C111.336 37.2899 111.623 37.1086 111.837 36.9028C117.776 31.2828 123.479 25.4781 126.462 17.6682C130.052 8.22239 124.983 0.597177 114.899 0.0430938C107.613 -0.35268 101.224 1.99553 95.4689 6.34904C84.17 14.8714 81.2133 30.544 93.1458 40.2272C95.0466 41.7576 94.4922 42.6283 92.7234 43.6573C91.1734 44.5591 89.6436 45.5065 88.1119 46.455C86.1479 47.6713 84.1808 48.8895 82.1637 50.0161ZM99.5081 35.5571C95.5482 32.8395 92.8554 28.486 92.8554 24.6338H92.8818C93.093 19.9637 95.1258 16.1114 98.5313 13.0244C103.811 8.27514 109.804 5.13533 117.169 6.50734C121.182 7.24612 122.502 9.67356 121.736 13.7104C121.182 16.4545 119.756 18.8027 118.172 21.0454C114.239 26.5863 109.223 31.0717 104.022 35.3988C102.438 36.7181 101.145 36.6917 99.5081 35.5571Z" fill="#0D0D0D"/>
<path d="M226.304 4.9243C218.569 3.78975 210.781 3.07729 202.967 3.13006L203.02 3.18288C202.034 3.18288 201.049 3.17702 200.063 3.17116C198.092 3.15943 196.121 3.1477 194.15 3.18288C192.671 3.23565 190.955 3.31478 190.586 5.13534C190.19 7.11421 191.827 7.90573 193.305 8.48619C194.651 9.01389 196.103 9.40967 197.555 9.64713C200.063 10.0449 202.585 10.3527 205.111 10.661C205.936 10.7617 206.761 10.8624 207.587 10.9664C209.435 11.2039 211.283 11.4384 213.131 11.673C216.827 12.142 220.523 12.6111 224.219 13.1035C224.304 13.1138 224.394 13.1222 224.487 13.1309C225.118 13.1899 225.886 13.2618 226.093 13.9743C226.283 14.6485 225.749 15.0366 225.257 15.3941C225.133 15.4843 225.011 15.5725 224.905 15.6629C224.034 16.3912 223.134 17.091 222.234 17.7908C221.635 18.2572 221.035 18.7237 220.444 19.1985C219.952 19.5884 219.46 19.9777 218.968 20.3671C211.27 26.4601 203.58 32.5471 197.476 40.3592C197.348 40.5169 197.197 40.6792 197.041 40.8462C196.363 41.5737 195.601 42.3916 196.288 43.3143C197.058 44.3467 197.998 43.8415 198.895 43.3597C199.168 43.2135 199.436 43.0695 199.694 42.9713C200.274 42.7338 200.829 42.4172 201.383 42.1006C209.997 37.3818 217.822 31.5328 225.646 25.6849C227.533 24.2738 229.421 22.8627 231.32 21.4676C232.587 20.5441 233.802 19.4887 234.831 18.3014C238.95 13.4993 237.709 8.539 231.822 6.29628C230.053 5.63666 228.179 5.21453 226.304 4.9243Z" fill="#0D0D0D"/>
</svg>
