<svg width="59" height="57" viewBox="0 0 59 57" fill="none" xmlns="http://www.w3.org/2000/svg">
<path d="M19.5124 49.0505C22.6539 44.0901 25.2938 39.5783 28.8841 35.7261C29.4649 35.1192 30.0193 34.4596 30.6265 33.8791C31.0753 33.457 31.6033 32.9557 32.2897 33.3514C32.9497 33.7208 32.9497 34.4332 32.7913 35.0401C32.3953 36.6759 32.0256 38.3118 31.4976 39.9213C29.9665 44.6706 27.5378 48.9977 25.0034 53.272C23.0235 56.6229 20.0403 57.3353 16.978 55.0398C10.6949 50.3169 5.46785 44.5386 0.87436 38.1799C0.135178 37.1509 -0.577599 35.8316 0.71597 34.7762C1.87754 33.8264 2.90713 34.7762 3.77831 35.5414C7.36862 38.7603 10.9325 42.0321 14.9188 45.6732C14.998 43.2722 14.0741 41.7155 13.6517 40.0796C11.9886 33.6417 10.2726 27.2565 11.3813 20.4756C12.5957 13.167 16.7404 8.2858 23.3138 5.22515C30.0457 2.08534 37.3319 1.4521 44.5654 0.766093C48.1293 0.423089 51.6668 -0.183765 55.2835 0.0536994C56.8675 0.159239 58.4779 0.44948 58.4515 2.34919C58.4515 4.30168 56.6562 4.0906 55.3363 4.0906C47.0469 4.0906 38.9951 5.59453 31.0752 8.02194C27.9337 8.9718 24.9242 10.2383 22.2843 12.2699C18.7204 15.0139 16.8196 18.5495 16.714 23.1141C16.6084 27.0191 16.8989 30.8976 17.5324 34.7498C18.2716 39.288 19.4067 43.7735 19.4595 49.0768L19.5124 49.0505Z" fill="#0D0D0D"/>
</svg>
